<?xml version="1.0" standalone="no"?>
<!DOCTYPE svg PUBLIC "-//W3C//DTD SVG 20010904//EN"
 "http://www.w3.org/TR/2001/REC-SVG-20010904/DTD/svg10.dtd">
<svg version="1.0" xmlns="http://www.w3.org/2000/svg"
 width="195.000000pt" height="101.000000pt" viewBox="0 0 195.000000 101.000000"
 preserveAspectRatio="xMidYMid meet">
<metadata>
Created by potrace 1.10, written by Peter Selinger 2001-2011
</metadata>
<g transform="translate(0.000000,101.000000) scale(0.100000,-0.100000)"
fill="#000000" stroke="none">
<path d="M671 856 c-84 -85 -152 -159 -149 -167 2 -7 41 24 96 79 51 51 94 92
97 92 2 0 -13 -28 -36 -62 -22 -34 -42 -73 -46 -86 -8 -32 19 -49 69 -45 37 3
40 2 27 -14 -7 -10 -32 -37 -56 -61 -41 -40 -53 -62 -35 -62 4 0 43 36 87 80
l80 80 -82 0 -81 0 94 156 c52 86 93 158 91 160 -2 2 -72 -66 -156 -150z"/>
<path d="M287 702 l-48 -14 16 -25 c14 -21 15 -27 4 -34 -20 -12 -37 -11 -41
3 -8 23 -39 15 -73 -19 -33 -33 -34 -36 -18 -49 10 -7 21 -14 26 -14 11 0 8
-13 -8 -34 -10 -13 -18 -16 -27 -9 -25 18 -41 8 -54 -37 -18 -60 -18 -60 16
-60 19 0 30 -5 30 -14 0 -8 3 -21 6 -30 5 -13 -1 -16 -31 -16 -31 0 -36 -3
-30 -17 3 -10 9 -31 12 -46 7 -34 26 -44 57 -29 18 8 25 6 35 -11 12 -18 10
-23 -13 -40 l-27 -20 32 -33 c37 -39 63 -43 79 -14 12 22 18 24 38 11 12 -7
11 -13 -2 -38 l-15 -30 42 -13 c80 -24 87 -22 87 21 0 32 3 39 20 39 16 0 20
-7 20 -35 0 -40 4 -41 79 -23 l50 11 -15 28 c-8 16 -14 32 -14 36 2 12 33 3
54 -15 22 -21 20 -21 43 1 19 16 59 17 626 15 572 -3 607 -2 607 15 0 16 -35
17 -590 17 -387 0 -590 -3 -590 -10 0 -5 -5 -10 -12 -10 -6 0 -3 9 7 20 10 11
14 20 9 20 -5 0 -20 9 -33 19 -20 16 -22 20 -10 39 9 15 17 18 29 12 32 -17
53 -5 66 41 8 24 14 45 14 47 0 1 -16 2 -35 2 -32 0 -35 2 -35 30 0 27 3 30
30 30 34 0 35 3 19 65 -11 42 -12 43 -41 34 -17 -4 -34 -6 -38 -4 -4 3 -13 -2
-20 -10 -7 -8 -20 -15 -29 -15 -10 0 -30 -14 -46 -30 -21 -22 -25 -30 -13 -30
9 0 26 12 37 27 12 14 24 23 28 19 4 -3 9 -33 11 -65 4 -60 -7 -111 -32 -144
-13 -17 -15 -17 -40 8 -24 24 -25 28 -11 48 8 12 15 39 15 61 l0 40 -58 -57
-57 -57 -35 18 c-27 13 -36 24 -38 47 -2 17 3 38 11 49 19 26 66 24 89 -4 16
-20 16 -23 1 -48 l-17 -27 22 19 c13 11 21 25 18 32 -2 6 24 59 59 118 l63
106 -81 0 -81 0 38 39 c42 43 41 43 -31 56 -31 5 -33 4 -33 -25 0 -23 -4 -30
-20 -30 -15 0 -20 7 -20 28 0 32 -12 34 -83 14z m104 -62 c10 0 26 11 35 24 9
15 21 23 31 19 27 -10 -27 -51 -77 -58 -64 -9 -105 -31 -149 -81 -60 -69 -74
-137 -45 -233 10 -36 22 -55 39 -63 13 -6 25 -18 28 -27 4 -16 37 -36 100 -60
27 -10 27 -12 12 -35 -9 -14 -16 -29 -16 -33 1 -4 -6 -7 -14 -7 -8 1 -24 2
-35 3 -17 1 -18 4 -8 26 9 21 8 28 -7 45 -23 25 -47 25 -70 0 l-18 -20 -24 22
-23 22 22 23 22 23 -21 28 c-12 15 -25 26 -30 25 -44 -8 -46 -7 -54 19 -5 22
-4 28 8 28 22 0 43 26 43 53 0 27 -33 62 -49 52 -12 -7 -13 0 -5 33 5 18 12
22 28 18 26 -6 39 2 55 32 11 21 10 27 -8 46 -21 22 -21 23 -3 39 21 19 48 22
57 7 9 -15 27 -12 53 10 19 16 21 23 13 39 -10 18 -7 20 21 23 25 2 38 -2 51
-19 10 -13 27 -23 38 -23z m179 -41 c0 -13 -15 -18 -38 -12 -32 8 -27 22 8 21
17 -1 30 -5 30 -9z m-87 -13 c63 -28 65 -32 33 -64 -26 -28 -29 -29 -54 -16
-33 17 -59 18 -101 3 -30 -11 -35 -9 -63 18 l-30 30 44 22 c50 25 124 28 171
7z m-200 -156 c-14 -34 -14 -47 -4 -81 11 -38 11 -43 -10 -65 -27 -29 -42 -20
-60 34 -18 54 -13 124 11 172 l21 41 29 -31 c28 -30 28 -31 13 -70z m409 55
c14 -18 8 -32 -17 -43 -21 -10 -25 -19 -25 -52 0 -34 4 -41 25 -46 18 -4 25
-13 25 -31 0 -21 -4 -24 -31 -21 -25 2 -36 -3 -52 -24 l-21 -28 22 -29 c20
-28 20 -30 3 -45 -22 -20 -40 -20 -47 -1 -8 21 -47 19 -67 -3 -11 -12 -13 -22
-7 -32 14 -22 13 -26 -16 -39 -30 -13 -44 -7 -44 19 0 10 -8 23 -17 29 -20 11
-18 12 53 30 50 13 126 82 148 135 18 43 21 105 7 153 -5 17 -8 33 -6 35 8 8
61 3 67 -7z m-227 -9 c36 -19 14 -30 -30 -15 -44 16 -78 2 -100 -41 -22 -43
-12 -85 26 -102 16 -7 29 -19 29 -25 0 -24 -38 -13 -64 18 -44 52 -31 148 23
168 38 14 85 13 116 -3z m33 -153 c-7 -15 -20 -28 -28 -28 -8 -1 -25 -6 -37
-13 -40 -22 -35 -12 18 33 29 25 54 43 57 41 2 -3 -2 -17 -10 -33z m-149 -59
c31 -15 86 -16 121 -1 8 4 26 -3 40 -14 24 -20 24 -21 5 -35 -54 -39 -152 -41
-214 -3 l-33 20 23 25 c27 29 19 27 58 8z"/>
<path d="M1210 554 c0 -28 49 -41 67 -17 17 22 9 30 -32 35 -31 3 -35 1 -35
-18z"/>
<path d="M820 395 l0 -175 28 0 27 0 0 175 0 175 -27 0 -28 0 0 -175z m27 38
c-3 -10 -5 -2 -5 17 0 19 2 27 5 18 2 -10 2 -26 0 -35z m0 -75 c-3 -7 -5 -2
-5 12 0 14 2 19 5 13 2 -7 2 -19 0 -25z m0 -80 c-3 -8 -6 -5 -6 6 -1 11 2 17
5 13 3 -3 4 -12 1 -19z"/>
<path d="M892 549 c2 -16 11 -23 33 -25 41 -4 68 -40 61 -78 -9 -42 -24 -56
-63 -56 -30 0 -34 -3 -31 -22 2 -19 8 -22 33 -20 73 7 115 48 115 111 0 60
-57 111 -125 111 -21 0 -26 -4 -23 -21z m125 -101 c-3 -8 -6 -5 -6 6 -1 11 2
17 5 13 3 -3 4 -12 1 -19z"/>
<path d="M1143 555 c-29 -20 -46 -75 -34 -107 8 -23 59 -68 75 -68 13 0 5 48
-9 60 -8 7 -15 23 -15 35 0 12 7 28 15 35 18 15 20 60 2 60 -7 0 -22 -7 -34
-15z"/>
<path d="M1365 395 l0 -175 30 0 30 0 0 175 0 175 -30 0 -30 0 0 -175z m32 2
c-2 -23 -3 -1 -3 48 0 50 1 68 3 42 2 -26 2 -67 0 -90z m0 -79 c-3 -8 -6 -5
-6 6 -1 11 2 17 5 13 3 -3 4 -12 1 -19z"/>
<path d="M1510 396 l0 -176 30 0 30 0 0 120 c0 73 -4 120 -10 120 -6 0 -10
-32 -10 -77 0 -110 -11 -83 -16 39 -3 98 -2 104 16 104 11 0 21 -5 21 -11 1
-5 3 -24 4 -40 4 -36 74 -215 85 -215 18 0 -6 113 -45 205 -39 94 -44 100 -73
103 l-32 3 0 -175z m40 -118 c0 -18 -2 -20 -9 -8 -6 8 -7 18 -5 22 9 14 14 9
14 -14z"/>
<path d="M1777 563 c-3 -5 -24 -52 -47 -107 -39 -93 -60 -201 -37 -193 11 3
78 174 81 207 9 99 42 93 39 -7 -1 -64 -13 -104 -13 -45 0 17 -4 34 -10 37 -6
4 -10 -37 -10 -114 l0 -121 30 0 30 0 0 175 0 175 -29 0 c-17 0 -32 -3 -34 -7z"/>
<path d="M1210 393 c0 -17 8 -33 20 -41 13 -8 20 -23 20 -42 0 -19 -7 -33 -20
-40 -23 -12 -27 -50 -5 -50 8 0 29 13 46 28 54 49 39 121 -33 158 -27 14 -28
14 -28 -13z"/>
<path d="M1106 264 c-9 -23 3 -34 48 -44 33 -7 36 -6 36 15 0 16 -7 25 -24 29
-13 3 -31 8 -39 12 -8 3 -17 -2 -21 -12z"/>
</g>
</svg>
